<svg xmlns="http://www.w3.org/2000/svg" viewBox="0 0 800 510">
  <rect width="800" height="510" fill="white"/>

  <!-- Gear (8-tooth polygon + circles) -->
  <g transform="translate(175, 205)">
    <polygon points="
      94,-19 129,-25 129,25 94,19
      79,53 108,72 72,108 53,79
      19,93 25,128 -25,128 -19,93
      -53,79 -72,108 -108,72 -79,53
      -93,19 -128,25 -128,-25 -93,-19
      -79,-53 -108,-72 -72,-108 -53,-79
      -19,-93 -25,-128 25,-128 19,-93
      53,-79 72,-108 108,-72 79,-53
    " fill="#5a5a5a"/>
    <circle cx="0" cy="0" r="86" fill="#7a7a7a"/>
    <circle cx="0" cy="0" r="30" fill="#4a4a4a"/>
    <circle cx="0" cy="0" r="16" fill="#333333"/>
  </g>

  <!-- Sweeping curved base from gear -->
  <path d="M 255 295 Q 310 268 390 310 L 390 345 Q 305 300 245 325 Z" fill="#888888" opacity="0.7"/>
  <path d="M 90 310 Q 175 270 255 295 L 245 325 Q 168 298 90 340 Z" fill="#9a9a9a" opacity="0.5"/>

  <!-- Building 1 – teal/cyan (small) -->
  <rect x="315" y="240" width="36" height="105" rx="2" fill="#4ecdc4"/>
  <rect x="321" y="248" width="10" height="12" rx="1" fill="white" opacity="0.8"/>
  <rect x="335" y="248" width="10" height="12" rx="1" fill="white" opacity="0.8"/>
  <rect x="321" y="266" width="10" height="12" rx="1" fill="white" opacity="0.8"/>
  <rect x="335" y="266" width="10" height="12" rx="1" fill="white" opacity="0.8"/>
  <rect x="321" y="284" width="10" height="12" rx="1" fill="white" opacity="0.8"/>
  <rect x="335" y="284" width="10" height="12" rx="1" fill="white" opacity="0.8"/>

  <!-- Building 2 – red -->
  <rect x="357" y="207" width="36" height="138" rx="2" fill="#e63946"/>
  <rect x="363" y="215" width="10" height="13" rx="1" fill="white" opacity="0.8"/>
  <rect x="377" y="215" width="10" height="13" rx="1" fill="white" opacity="0.8"/>
  <rect x="363" y="234" width="10" height="13" rx="1" fill="white" opacity="0.8"/>
  <rect x="377" y="234" width="10" height="13" rx="1" fill="white" opacity="0.8"/>
  <rect x="363" y="253" width="10" height="13" rx="1" fill="white" opacity="0.8"/>
  <rect x="377" y="253" width="10" height="13" rx="1" fill="white" opacity="0.8"/>
  <rect x="363" y="272" width="10" height="13" rx="1" fill="white" opacity="0.8"/>
  <rect x="377" y="272" width="10" height="13" rx="1" fill="white" opacity="0.8"/>

  <!-- Building 3 – dark navy -->
  <rect x="399" y="222" width="36" height="123" rx="2" fill="#1a2e6e"/>
  <rect x="405" y="230" width="10" height="13" rx="1" fill="white" opacity="0.8"/>
  <rect x="419" y="230" width="10" height="13" rx="1" fill="white" opacity="0.8"/>
  <rect x="405" y="249" width="10" height="13" rx="1" fill="white" opacity="0.8"/>
  <rect x="419" y="249" width="10" height="13" rx="1" fill="white" opacity="0.8"/>
  <rect x="405" y="268" width="10" height="13" rx="1" fill="white" opacity="0.8"/>
  <rect x="419" y="268" width="10" height="13" rx="1" fill="white" opacity="0.8"/>
  <rect x="405" y="287" width="10" height="13" rx="1" fill="white" opacity="0.8"/>
  <rect x="419" y="287" width="10" height="13" rx="1" fill="white" opacity="0.8"/>

  <!-- Building 4 – light sky blue -->
  <rect x="442" y="174" width="48" height="171" rx="2" fill="#90caf9"/>
  <rect x="450" y="183" width="13" height="16" rx="1" fill="white" opacity="0.8"/>
  <rect x="469" y="183" width="13" height="16" rx="1" fill="white" opacity="0.8"/>
  <rect x="450" y="205" width="13" height="16" rx="1" fill="white" opacity="0.8"/>
  <rect x="469" y="205" width="13" height="16" rx="1" fill="white" opacity="0.8"/>
  <rect x="450" y="227" width="13" height="16" rx="1" fill="white" opacity="0.8"/>
  <rect x="469" y="227" width="13" height="16" rx="1" fill="white" opacity="0.8"/>
  <rect x="450" y="249" width="13" height="16" rx="1" fill="white" opacity="0.8"/>
  <rect x="469" y="249" width="13" height="16" rx="1" fill="white" opacity="0.8"/>
  <rect x="450" y="271" width="13" height="16" rx="1" fill="white" opacity="0.8"/>
  <rect x="469" y="271" width="13" height="16" rx="1" fill="white" opacity="0.8"/>

  <!-- Building 5 – pink (tallest) -->
  <rect x="498" y="88" width="58" height="257" rx="2" fill="#f06292"/>
  <rect x="508" y="100" width="16" height="20" rx="1" fill="white" opacity="0.8"/>
  <rect x="530" y="100" width="16" height="20" rx="1" fill="white" opacity="0.8"/>
  <rect x="508" y="126" width="16" height="20" rx="1" fill="white" opacity="0.8"/>
  <rect x="530" y="126" width="16" height="20" rx="1" fill="white" opacity="0.8"/>
  <rect x="508" y="152" width="16" height="20" rx="1" fill="white" opacity="0.8"/>
  <rect x="530" y="152" width="16" height="20" rx="1" fill="white" opacity="0.8"/>
  <rect x="508" y="178" width="16" height="20" rx="1" fill="white" opacity="0.8"/>
  <rect x="530" y="178" width="16" height="20" rx="1" fill="white" opacity="0.8"/>
  <rect x="508" y="204" width="16" height="20" rx="1" fill="white" opacity="0.8"/>
  <rect x="530" y="204" width="16" height="20" rx="1" fill="white" opacity="0.8"/>
  <rect x="508" y="230" width="16" height="20" rx="1" fill="white" opacity="0.8"/>
  <rect x="530" y="230" width="16" height="20" rx="1" fill="white" opacity="0.8"/>

  <!-- Building 6 – light blue (second tallest) -->
  <rect x="564" y="120" width="58" height="225" rx="2" fill="#81d4fa"/>
  <rect x="574" y="132" width="16" height="20" rx="1" fill="white" opacity="0.8"/>
  <rect x="596" y="132" width="16" height="20" rx="1" fill="white" opacity="0.8"/>
  <rect x="574" y="158" width="16" height="20" rx="1" fill="white" opacity="0.8"/>
  <rect x="596" y="158" width="16" height="20" rx="1" fill="white" opacity="0.8"/>
  <rect x="574" y="184" width="16" height="20" rx="1" fill="white" opacity="0.8"/>
  <rect x="596" y="184" width="16" height="20" rx="1" fill="white" opacity="0.8"/>
  <rect x="574" y="210" width="16" height="20" rx="1" fill="white" opacity="0.8"/>
  <rect x="596" y="210" width="16" height="20" rx="1" fill="white" opacity="0.8"/>
  <rect x="574" y="236" width="16" height="20" rx="1" fill="white" opacity="0.8"/>
  <rect x="596" y="236" width="16" height="20" rx="1" fill="white" opacity="0.8"/>

  <!-- Ground line -->
  <rect x="90" y="344" width="550" height="4" rx="2" fill="#dddddd"/>

  <!-- "Prakash Deep" script text -->
  <text x="400" y="408"
    font-family="Georgia, 'Times New Roman', serif"
    font-size="76"
    font-weight="bold"
    font-style="italic"
    fill="#1a2e6e"
    text-anchor="middle">Prakash Deep</text>

  <!-- Horizontal rule + PROPRIETOR -->
  <line x1="108" y1="432" x2="295" y2="432" stroke="#bbbbbb" stroke-width="1.5"/>
  <text x="400" y="438"
    font-family="Arial, Helvetica, sans-serif"
    font-size="19"
    font-weight="500"
    fill="#888888"
    text-anchor="middle"
    letter-spacing="5">PROPRIETOR</text>
  <line x1="505" y1="432" x2="692" y2="432" stroke="#bbbbbb" stroke-width="1.5"/>

  <!-- MECHANICAL | ELECTRICAL | CIVIL SOLUTIONS -->
  <text x="400" y="467"
    font-family="Arial, Helvetica, sans-serif"
    font-size="18"
    font-weight="700"
    fill="#1a2e6e"
    text-anchor="middle"
    letter-spacing="1.5">MECHANICAL  |  ELECTRICAL  |  CIVIL SOLUTIONS</text>

  <!-- Tagline -->
  <text x="400" y="492"
    font-family="Arial, Helvetica, sans-serif"
    font-size="12"
    fill="#666666"
    text-anchor="middle">We are providing Services for Mechanical and electrical equipment's maintenance of ETP, STP and RO Plants, and all related civil works.</text>
</svg>
